PathFileType	4	(X/Y/Z)	T1_P2_NoVision_Movement_3_0-732.trc
DataRate	CameraRate	NumFrames	NumMarkers	Units	OrigDataRate	OrigDataStartFrame	OrigNumFrames
60	60	7	27	m	60	91	732
Frame#	Time	RHip			RKnee			RAnkle			RBigToe			RSmallToe			RHeel			LHip			LKnee			LAnkle			LBigToe			LSmallToe			LHeel			Neck			Head			Nose			RShoulder			RElbow			RWrist			RThumb			RIndex			RPinky			LShoulder			LElbow			LWrist			LThumb			LIndex			LPinky		
		X1	Y1	Z1	X2	Y2	Z2	X3	Y3	Z3	X4	Y4	Z4	X5	Y5	Z5	X6	Y6	Z6	X7	Y7	Z7	X8	Y8	Z8	X9	Y9	Z9	X10	Y10	Z10	X11	Y11	Z11	X12	Y12	Z12	X13	Y13	Z13	X14	Y14	Z14	X15	Y15	Z15	X16	Y16	Z16	X17	Y17	Z17	X18	Y18	Z18	X19	Y19	Z19	X20	Y20	Z20	X21	Y21	Z21	X22	Y22	Z22	X23	Y23	Z23	X24	Y24	Z24	X25	Y25	Z25	X26	Y26	Z26	X27	Y27	Z27
92	1.5333333333333334	468.70258756124434	3612.8362168115736	531.0089270136905	877.7249197822148	3690.539424730763	562.1580800817825	1245.138049096036	3716.1853253621293	627.7871790035556	1328.3835219781265	3626.1746987833335	605.4385997578167	1308.6319882727412	3644.055896334859	557.0186225443417	1269.7537617568607	3704.462182965197	641.5750893618094	468.14473661509976	3508.20346062054	734.137551293187	875.0086563410233	3533.8612299729075	735.1742190617043	1231.9910793086613	3589.4368812350845	724.2500307286041	1328.4086824550443	3556.906359556902	683.5746656643138	1282.9579960320755	3476.612711751592	715.9699891700606	1270.9392813314184	3612.2050117128238	718.7063053346883	-117.96472432669222	3538.634274291131	636.3301602958362	-369.2257705356772	3496.024553841713	617.5318841464247	-233.93235978119984	3416.7391926370433	553.2443282861125	-31.735862288382812	3695.1429312476557	538.4036487687868	205.95679336679052	3743.011722211098	474.894593069221	443.55273077877894	3661.2079267932418	404.1763232066233	580.9793002812148	3604.888508133009	414.6230116615284	612.7204820471665	3652.1649109028745	413.5586469615627	592.3817548642605	3692.3852045654394	408.0803120261438	-14.58647356298822	3532.8354464248587	816.2306666555731	245.5473807466806	3455.532418958265	841.6084634427548	485.36674771022416	3430.0539159222317	829.1381532557645	595.342509612395	3422.227809904958	802.4478970572864	604.4947147143347	3416.4760627607016	812.9170119238008	602.8702954937269	3397.4146546687925	836.9830297624457
93	1.55	468.2390476733152	3617.25124248131	532.7888199586678	877.6735173242478	3690.4462630769303	561.6440526850508	1246.4369496317815	3718.126790765784	628.041702463221	1326.2081495073876	3620.5684190274337	603.969732495411	1305.2169926180552	3636.1196704935737	553.5621324284364	1268.5450432767827	3697.652188260111	638.3304068730936	467.64111309553465	3509.732331261231	734.9496367849615	876.7740339021717	3540.4125943785557	737.5179796999378	1232.83443752349	3588.9745075954115	723.9555182522093	1328.713062896282	3557.114069829861	683.5839870418946	1282.8547190950933	3476.9725529103825	716.212451912954	1271.8706438827394	3611.7622749796983	720.0321427858645	-117.53730487050275	3538.754103368272	636.3805458366812	-369.61376005872734	3491.6041956583013	613.3653964821557	-233.3017432404385	3413.2727312531565	550.1227418861007	-29.18850682449869	3697.0360032594212	538.979695559332	206.09203074664322	3744.348840725195	476.19914281155036	443.3565323160584	3661.5498263270656	404.1875465354868	577.4090946914495	3600.8055862038427	413.444591538252	609.7397971888765	3652.0710748464735	411.52898152703074	591.6787303966012	3692.862414052305	408.33368793842084	-14.184292500551614	3529.4279454580183	812.1646711351234	245.96333940245722	3454.045542300093	840.7581494626127	485.8939436522531	3430.2826169724376	829.0292388419177	595.7741733836276	3424.812646662854	800.5557769302384	605.6400443362418	3420.9894829291957	814.3071818170899	601.1382185865095	3392.7505951995936	832.4816656175495
94	1.5666666666666669	469.06458342865983	3629.0239965785922	538.5064023093294	875.4410437744547	3687.0948372263274	558.7606812812735	1246.3146704544297	3719.817958447565	628.4084850393683	1324.2976715668847	3615.5328324698658	602.69324370625	1303.226728206581	3631.913885848001	550.9105059193806	1266.2119698645377	3690.167544050213	633.4514609830802	467.57505492520283	3511.926059080509	736.1550736878464	879.3183613612046	3549.9964141018627	740.3422289436036	1233.3647601453242	3588.763026518145	723.7642877025866	1328.470447927584	3558.5136583273147	684.2077453754843	1282.537119425591	3477.8124267746803	716.72588895581	1272.8682806835773	3612.7116394860363	721.7379228896375	-117.5367265577895	3538.6549377266533	636.3012393835992	-369.72292326755644	3488.1799448437423	609.611524463458	-232.97744042293283	3412.2561401491457	549.0589906185215	-27.017821261717927	3700.0169133264326	539.9196263495319	205.97535127277075	3744.039383292439	476.13578437498154	443.2077616990656	3661.8754846766487	404.1858350721727	574.5041490227132	3598.8186424190835	411.8851828867457	607.5609546231346	3656.084447900943	410.6103232172707	591.4394413438768	3692.97771567753	408.25559724662514	-14.305424737447847	3524.972362722835	806.3159607877964	244.78369078872495	3453.5042553732446	840.3869055772774	487.2225887753083	3431.203853683022	829.2155608295805	596.2963884063574	3430.8729098471736	799.7292529615729	607.0649747215585	3425.7118921593697	816.0074718654888	599.0620549626688	3389.00345340856	828.8747665866874
95	1.5833333333333333	470.56006191333387	3644.597897072261	546.1595967459297	871.6669389499654	3682.1470557214307	554.5506993597916	1245.6309524700416	3720.759415722257	628.7642785585966	1324.8460211861761	3615.8160377422582	602.9191746901088	1304.1390685984607	3633.4282780504864	550.76495821753	1264.4160135893737	3685.6664927973316	629.3406416662299	468.15462418057996	3513.930068365943	737.3020674554476	881.1831399120355	3557.9413652034746	741.8008938238173	1232.9701689677543	3588.4434165535877	723.6450392729648	1327.3876647339075	3559.539078858327	684.8015179900332	1282.3698750127069	3478.5922780728	717.2053805927756	1272.9263482509155	3613.889924235398	722.8915495583334	-117.63182595588941	3538.499473739118	636.1843777335732	-369.21946137701656	3486.4901519291025	606.8013032107551	-233.29514056327463	3412.5520016765427	549.2428775087117	-25.920552927823287	3701.2950473501683	540.4170035005711	205.96367114514686	3743.6932575353644	475.8263506698416	442.86251135493404	3662.2949913089483	404.2918735637169	573.7190369340632	3599.2801943502122	409.65678915944835	606.989753412768	3660.869553171321	410.0386125371257	590.9390464195959	3691.31036995748	406.9460722793889	-14.640128134514246	3521.9670259129384	801.402480560999	242.01480956104942	3453.976599459729	840.5842921304886	488.980372407662	3432.5570755903127	829.6502198028153	596.1738383265011	3436.4277016369506	798.2854738298175	608.3181963110917	3428.844520220978	817.1059153314683	597.2367724596916	3387.2764884641015	827.2295291184319
96	1.6	470.7571765455269	3656.314290279415	551.7809716271171	867.5072738355011	3678.5247296847483	551.5311418410446	1245.793311941965	3721.348056840607	629.0659026580194	1327.7569942802809	3621.4137580452307	604.6076029023337	1307.2733704172856	3637.7691417288706	552.7823629132814	1264.426063594146	3684.0269034609264	627.0816539981514	468.7610203152197	3515.179729963238	738.0898354448982	881.931332209134	3561.6861727317128	741.3012457956547	1232.2039556499426	3588.028504135157	723.5309551788937	1326.348500569683	3559.7603303503192	685.018062197533	1281.9448795880091	3478.98715817468	717.3983067460052	1272.3683605424405	3613.6631032234627	722.896146316366	-117.69033217904219	3538.4406398155334	636.1276706517108	-368.4594544248576	3485.866234704328	604.7331931916855	-233.92127082718767	3412.6125641875274	549.3710580552863	-26.060605542864792	3699.210596556085	540.3386621968089	206.48501078875654	3744.114211221813	475.8392562092717	442.30788029278597	3662.615348274099	404.47073958917935	575.1439266011032	3602.538962570529	407.42630570819284	607.7327790632689	3662.238877531725	408.24630299148544	589.8688746876948	3687.0231109997394	403.75725834117657	-15.486416486923229	3520.629656016597	798.6657909000131	238.62367868833064	3454.919186628579	841.0676373803524	490.3411547083699	3433.7428496637485	830.1503751344756	595.0593552942989	3438.592372870255	795.7887311726786	609.1588515760764	3430.2401334451924	817.5610458043375	596.0092071445017	3386.52781720221	826.5875998921664
97	1.6166666666666667	468.9194135976504	3659.4009246769065	552.9254301144103	864.3301821504792	3678.4485651527957	551.7017626954773	1246.3774715343884	3721.384053602884	629.0149388710847	1331.0177811337908	3627.609718451091	606.4542417936218	1311.4273705484495	3643.3996012906855	556.2747260450573	1265.7030353347104	3683.119273462548	626.127496706283	468.70538150346044	3515.635110677189	738.4764694574931	882.2206422180503	3561.890650714792	739.8323176413012	1231.6362310680672	3587.6692418728744	723.4340424077426	1326.3307215626292	3559.8808724207247	685.0376979745907	1280.9659615955552	3478.586600249757	717.0011311959452	1271.8163364356355	3611.89669339799	722.0041599637672	-117.71134844420624	3538.6074408910827	636.2300075224498	-367.97742188113926	3485.5901069972797	603.4666801594719	-234.38397266102626	3411.0833391536066	548.1580530118725	-26.886594019129824	3695.718764377564	539.9279659673599	207.6829545422798	3745.368700400404	476.23649733986105	441.87437133488936	3662.500671713154	404.54721778062304	577.8124642768485	3608.63311089374	406.49113630328713	609.2468390490191	3660.4464354017427	405.3962094723115	588.9104225446562	3681.8182860561246	399.6741191127082	-17.369365944912374	3518.78850170858	796.559998408466	235.7856726959069	3455.446423141592	841.316009223132	490.929973314835	3434.429909671133	830.5542980733309	593.6255800041818	3437.347410868057	792.9731142610203	609.4839077882525	3430.5771058939004	817.7014405643165	595.1340748023925	3384.7516939102743	825.0975313475667
98	1.6333333333333333	466.59016059112616	3655.741796775628	550.650327734859	863.361049758986	3681.658796661553	554.7992592407371	1245.2099155053434	3719.3942219322917	627.8486299246133	1332.7103356858945	3630.828087845389	607.3917484920736	1314.8651306172383	3649.5157449602884	559.9746958864667	1266.2864364990894	3681.9014320719257	625.6313225325619	467.8953449152406	3515.514786721577	738.4343574568529	882.416496039773	3560.6701133318616	738.596724445305	1230.6681252299582	3587.0279770196294	723.309732179933	1327.1722914937216	3560.244030665252	685.0683085006224	1279.0565198552051	3476.325245318405	715.2380484428921	1271.1596820854345	3609.723169602193	720.9916094619256	-117.7241022909163	3538.970119375592	636.4695708319879	-367.885973710707	3485.890290975114	603.1291273749839	-234.5988612580046	3407.347730475626	544.7791060961492	-27.442278335147194	3693.3815863458985	539.0419914561351	208.93925688768422	3746.7104500655623	476.7022888189604	441.72206810604223	3662.604251829811	404.6197407962909	580.9301754980686	3616.630132487154	407.34519926440765	611.518369976149	3660.376236111131	403.52628942083425	589.2622169760443	3678.860696595082	396.76245228578483	-19.95240259616441	3514.6945493532667	793.0248834529909	234.5947912359763	3455.065405395511	841.0396424233795	490.96178368161867	3434.4126879698547	830.502392192711	592.7717911112613	3433.8777934496734	789.9909195807245	609.4682931894878	3430.5620217471574	817.8016775102845	594.2234765022665	3380.934430942409	821.6971772466343
